<?xml version='1.0' encoding='utf-8'?>
<svg xmlns="http://www.w3.org/2000/svg" version="1.1" width="600px" height="976px" viewBox="0 0 600 976"> <g id="layer1"> <g style="fill:rgb(0,0,0); fill-opacity:1.0; stroke-linejoin: miter"> <path d="M300.49594,436.44855C291.88113,435.79684,282.56064,436.29144,275.41928,437.80716L273.21994,438.27994L274.74634,440.10904C275.58643,441.1091,276.26373,442.0232,276.25116,442.14224C276.2404,442.24426,275.4365,442.69244,274.47775,443.1415C256.75095,451.10526,242.16344,458.48935,238.30646,461.46954L237.50162,462.08957L233.04611,461.61908C229.44093,461.2384,228.30699,461.06705,227.14348,460.68625C224.43083,459.83237,222.18282,458.6493,220.62672,457.26407L219.88852,456.60147L218.29262,456.57053C213.24806,456.46768,200.52826,456.58627,193.71405,456.79523C183.46724,457.10602,176.55807,457.563,172.0691,458.22388C170.53131,458.45694,168.62299,458.61658,167.64468,458.5992C163.30276,458.519,159.48505,459.33676,155.22032,461.29376C153.64925,462.00485,150.71826,463.70718,149.11926,464.84518C148.43263,465.3229,147.7433,465.6628,147.30739,465.71994C146.90549,465.78067,145.48314,466.06042,144.13063,466.33026C136.79866,467.86023,129.76949,471.24475,124.48981,475.8115L122.769905,477.28064L122.70949,478.66708C122.679695,479.43765,122.57606,481.559,122.46896,483.3876C122.37886,485.21793,122.25885,488.14566,122.230545,489.87936C122.1588,493.00143,122.15343,493.05234,121.7684,493.44174C121.55621,493.66,120.83542,494.46085,120.18802,495.21786L118.992645,496.60477L119.93228,497.15103C126.3961,500.9116,135.1238,503.9138,145.7824,506.05386C148.78065,506.64554,154.44345,507.57022,156.39908,507.7767L157.53845,507.897L157.7773,505.63528C157.93892,504.10477,158.09131,503.31277,158.24174,503.191C158.37334,503.08456,158.97751,503.0624,159.77676,503.14676C160.93317,503.26895,161.14886,503.34323,161.56851,503.7659C161.81548,504.03262,162.08829,504.54294,162.16962,504.91263C162.81569,508.07596,166.86304,514.0403,170.26245,516.85815C174.92894,520.704,180.7005,522.87823,186.65355,523.0082C190.47812,523.1024,193.17422,522.64777,196.56067,521.3546C199.26678,520.3163,201.35449,519.10956,203.76105,517.16266C206.65643,514.8204,209.03555,511.99362,210.50264,509.17374C210.71939,508.7496,210.80621,508.74155,212.43431,508.79312C213.3768,508.82376,214.29509,508.92075,214.492,509.0104C214.96898,509.21548,215.01355,509.77042,214.65768,511.34927L214.36095,512.69354L215.0922,512.77075C215.50038,512.8139,243.47552,515.92267,277.29712,519.6831C333.24576,525.9177,338.78967,526.5031,339.05286,526.29016C339.27844,526.1077,339.39142,525.6897,339.50998,524.56744L339.6662,523.088L341.7463,523.256L343.80945,523.42224L344.58118,525.3952C346.61484,530.56213,350.71533,535.53467,355.23813,538.2993C362.05365,542.4752,371.1704,543.42065,378.3847,540.72626C380.98163,539.7452,383.08997,538.5063,385.44012,536.605C387.9031,534.6125,389.55685,532.79254,391.11337,530.4291L392.1826,528.7709L395.51132,529.002C399.30096,529.2647,399.17035,529.1992,399.21994,530.6833C399.23947,531.1496,399.268,531.53094,399.285,531.5327C399.48907,531.55426,411.67297,531.1385,420.1315,530.8281C428.57477,530.4988,430.96283,530.35535,431.60568,530.13104C432.17676,529.93335,433.41223,528.9805,435.8108,526.9468C437.66406,525.3541,439.46826,523.73914,439.80225,523.34454C441.05765,521.8779,441.36414,520.6034,440.9934,518.4149C440.7772,517.2055,440.80148,516.81256,441.1721,514.1176C441.41248,512.4923,441.85892,510.21805,442.1529,509.06256C443.64322,503.5799,443.7293,503.09024,443.67966,501.6063C443.59097,499.1896,443.31635,498.69632,439.69092,494.27252C436.38318,490.2607,435.78107,489.28574,435.56497,487.74973L435.44177,486.96292L433.23117,486.07614C432.00867,485.60315,429.29694,484.57733,427.17407,483.83734L423.33115,482.45142L423.49875,481.6781C423.5964,481.24133,423.7237,480.68738,423.7829,480.45288C423.8976,480.01794,423.88055,480.01617,422.61765,479.7624C421.90884,479.63593,420.45175,479.43048,419.38034,479.31732L417.42477,479.11084L417.6884,477.5911C417.93585,476.22443,417.93506,476.0696,417.6629,476.04086C417.50986,476.02472,416.1332,476.03406,414.617,476.06308C413.10068,476.09213,411.75812,476.10513,411.62204,476.09076C411.41803,476.06924,411.43692,475.72733,411.6925,474.12076C411.93378,472.65024,411.95007,472.17047,411.797,472.15433C411.67795,472.14175,410.46423,472.23712,409.09018,472.38437L406.60632,472.62076L405.18066,471.95438C392.52722,465.9067,381.55347,461.05096,369.27032,456.05698C345.33206,446.3072,329.35413,441.12943,314.56763,438.34714C311.83783,437.8181,304.82794,436.7856,303.22583,436.65088C302.57788,436.59958,301.34988,436.50436,300.49594,436.44855 Z M313.4553,445.62366C319.8708,446.7482,327.80142,448.66895,328.09305,449.16403C328.17896,449.32782,328.25943,449.5427,328.25046,449.6277C328.2307,449.81476,319.8034,469.37012,319.70947,469.44617C319.63425,469.50702,310.21298,468.83887,284.72028,466.97238C275.99976,466.34384,268.1824,465.79352,267.37778,465.76013L265.9045,465.70773L265.89682,464.64078C265.86398,461.04355,264.13766,457.5254,261.90207,456.54987C261.0295,456.18265,260.91043,456.17007,259.48544,456.3119C257.83585,456.46445,255.96938,457.0411,254.35175,457.8676C252.82272,458.66913,249.81813,461.06873,248.24669,462.7599L246.9063,464.2175L245.00706,463.9654C243.24387,463.72763,243.10954,463.69626,243.14366,463.37317C243.1706,463.11804,245.8196,461.64386,254.52116,457.07736C266.99072,450.5358,269.60297,449.24692,274.4065,447.39835C282.79788,444.1404,288.07996,443.4601,300.3807,444.05392C303.27264,444.18735,309.89413,444.9897,313.4553,445.62366 Z M338.40775,452.28217C350.50766,456.5691,362.25192,461.78125,367.89145,465.3687C371.00125,467.34784,372.32455,468.6569,372.2222,469.6262C372.1522,470.2894,371.1925,470.9103,369.84174,471.16318C367.98166,471.517,358.03214,471.29178,339.23413,470.51047C332.93472,470.24084,331.57065,470.1311,331.31207,469.8115C331.20563,469.6799,331.17444,469.16077,331.2301,468.6336C331.3945,466.9142,334.27625,451.674,334.4697,451.4709C334.77768,451.15955,335.8043,451.3711,338.40775,452.28217 Z M321.93338,470.3687C322.97385,471.7511,324.16437,474.3185,324.4941,475.91815C324.80692,477.51596,324.48898,480.85263,323.8169,482.98273C322.32962,487.6231,319.24866,493.35056,315.32385,498.76538C309.72885,506.47992,301.79242,511.45395,293.43225,512.4626C291.74133,512.6795,287.96875,512.4187,270.28625,510.8439C264.85074,510.37308,252.83652,509.34525,243.56204,508.5894C228.80106,507.3574,226.70757,507.1536,226.52504,506.9279C226.35774,506.7211,226.36736,504.67593,226.53671,498.67535C226.6563,494.286,226.80316,488.6615,226.87825,486.15887C227.04938,480.1414,227.47331,475.80142,228.08617,473.90588C229.33061,470.09958,231.74756,466.5889,235.10678,463.76257C236.61807,462.47775,236.78189,462.39188,237.13986,462.5844C237.51303,462.79578,237.45486,462.85837,235.67854,464.3732C232.97914,466.6502,231.18468,468.98843,229.85812,471.9435C228.68471,474.5881,227.95326,477.93274,227.99895,480.43076C228.01659,481.2408,227.88484,487.21094,227.71625,493.69293C227.43735,503.4993,227.42772,505.54446,227.64067,505.80765C227.8688,506.08975,229.0422,506.21365,242.65848,507.3762C250.80513,508.0646,262.23755,509.06534,268.09647,509.5981C287.07315,511.29245,290.96478,511.56577,292.87674,511.37222C298.35562,510.7814,303.54062,508.57767,308.19974,504.8396C311.96002,501.7976,314.63388,498.29694,319.17264,490.48807C322.30627,485.0758,323.0757,483.16235,323.40887,479.84445C323.7734,476.39227,323.10928,473.7257,321.23944,471.24127C320.2177,469.8437,320.16223,469.7175,320.51944,469.42853C320.8955,469.12427,321.05475,469.24426,321.93338,470.3687 Z M168.07501,459.2465C168.54843,459.48563,168.29228,459.95724,167.06924,461.11774C163.36432,464.6126,157.75024,468.11237,152.73186,470.04135C147.76627,471.95868,141.79497,472.9789,141.9099,471.89053C142.02303,470.81918,147.49147,466.582,151.94795,464.11215C156.5494,461.57166,160.92766,460.00494,165.50706,459.3021C167.16748,459.0475,167.65082,459.0298,168.07501,459.2465 Z M435.88937,492.16882C436.61374,494.10248,437.05347,496.12628,436.8537,496.5523C436.68356,496.86102,432.75964,496.56702,422.4506,495.51288L413.689,494.62207L412.2257,493.98608C408.987,492.578,405.98907,490.6795,406.4403,490.31445C406.55313,490.2232,407.40076,490.17505,408.3299,490.17004C409.25717,490.18195,414.33487,490.1335,419.58456,490.08603C424.83408,490.03854,430.10254,489.9758,431.2903,489.9636C432.47806,489.9515,433.83054,490.00827,434.28964,490.0568L435.13638,490.18057L435.88937,492.16882 Z M192.3528,475.54913C195.37332,476.41833,198.31487,478.03577,201.19263,480.42023C205.41533,483.90967,207.95566,488.8379,208.57314,494.71503C208.68286,495.7928,208.65477,496.87305,208.44919,498.65692C208.04166,502.19058,207.33664,504.14505,205.31274,507.35324C203.85034,509.6406,201.99777,511.71475,199.75677,513.5587C198.32431,514.74866,197.60722,515.18884,196.16595,515.8104C190.40273,518.2798,184.84523,518.312,178.95918,515.9194C176.8659,515.0621,174.68593,513.8862,173.6712,513.07404C172.26183,511.92783,169.09554,507.8793,168.11252,505.95285C164.65974,499.2432,164.99324,492.17673,169.10846,484.9594C170.287,482.91718,171.50116,481.515,173.56932,479.84192C177.10399,476.98248,181.54497,475.14725,185.61856,474.83804C187.40245,474.7169,190.56549,475.05087,192.3528,475.54913 Z M376.72855,495.34488C384.60144,498.46304,389.9256,505.85187,390.46872,514.38654C390.5987,516.4121,390.11868,520.1445,389.48703,522.05524C386.6388,530.62726,380.0735,535.9695,371.1072,537.01733C369.54077,537.1959,368.8552,537.1751,365.9812,536.8716C362.854,536.5242,362.58362,536.4785,361.18488,535.88367C355.65765,533.5117,351.12933,528.6831,348.941,522.86365C347.62454,519.37146,347.36224,516.97076,347.87894,513.37994C349.37433,503.28943,355.99033,496.1641,365.38205,494.50778C368.2365,494.01828,369.33926,493.9971,372.3609,494.36783C374.7516,494.689,375.3906,494.8253,376.72855,495.34488 Z M133.85112,479.001C136.66307,480.05453,138.64406,482.13797,139.34402,484.79117L139.59074,485.7114L135.86653,485.31815C133.80885,485.10092,132.01787,484.96335,131.85942,484.99814C131.66518,485.04648,131.61324,485.21286,131.64352,485.57724C131.73184,486.53226,131.50357,486.57693,128.35754,486.24478C126.28284,486.02567,125.471954,485.88846,125.35388,485.704C125.27963,485.59305,125.19388,485.10245,125.1743,484.6362C125.15932,483.96396,125.021576,483.63992,124.55008,483.0571C124.03295,482.41782,123.96767,482.22177,124.037704,481.55856C124.24421,479.60287,125.74112,478.45413,128.42908,478.2393C129.88628,478.11807,132.42813,478.47244,133.85112,479.001 Z M131.51033,487.8157C131.86818,488.335,131.62482,490.80264,131.20052,490.91257C131.04208,490.94742,129.77827,490.86557,128.40082,490.72012C126.15607,490.48306,125.85358,490.41672,125.74626,490.13022C125.56828,489.69876,125.43837,487.34653,125.57093,487.06815C125.74108,486.75943,126.13582,486.76675,128.86653,487.12387C131.00385,487.40115,131.27055,487.48087,131.51033,487.8157 Z M130.25687,491.70712C130.6748,491.8201,131.01758,491.99374,131.00679,492.09586C130.99602,492.19785,130.71747,492.71866,130.38434,493.2681C129.71628,494.384,128.61237,495.2305,127.57851,495.4136C126.27877,495.67184,126.23317,495.6154,126.04747,494.11703C125.96985,493.38663,125.911964,492.46915,125.95147,492.095L126.006294,491.413L127.29248,491.44565C127.99512,491.4683,128.78278,491.4999,129.02263,491.50803C129.2625,491.51614,129.8201,491.6094,130.25687,491.70712 Z"/> </g> <g style="fill:rgb(0,0,0); fill-opacity:1.0; stroke-linejoin: miter"> <path d="M187.7796,476.35583C179.0438,476.3619,172.53714,480.33478,169.34029,487.6491C168.0755,490.50754,167.74298,491.8652,167.37392,495.5233C166.98784,499.17953,167.05914,500.13278,167.88618,502.8854C169.65999,508.88467,175.26328,513.79236,182.66748,515.81226C186.19283,516.7863,190.84995,516.4872,194.76634,515.0608C202.78172,512.10706,208.09671,503.62357,207.22142,495.13983C206.35335,486.58807,201.86388,480.5771,194.17532,477.6674C192.78636,477.1424,189.7586,476.34125,189.15442,476.36343C189.0694,476.35443,188.45001,476.3578,187.7796,476.35583 Z"/> </g> <g style="fill:rgb(0,0,0); fill-opacity:1.0; stroke-linejoin: miter"> <path d="M369.94107,495.6254C363.8904,495.60556,358.394,497.82797,354.73093,501.74C350.56113,506.2176,348.3954,513.5376,349.6207,519.032C351.42694,527.167,356.26663,532.6302,363.54285,534.72266C365.79553,535.37317,369.72565,535.771,371.796,535.54254C380.0041,534.67255,385.71976,530.04877,388.3001,522.22217C388.83682,520.5593,389.4409,515.32697,389.26782,513.7094C388.56732,507.15283,384.8681,501.31125,379.51123,498.30392C376.26443,496.48227,373.24216,495.6301,369.94107,495.6254 Z"/> </g> <g style="fill:rgb(0,0,0); fill-opacity:1.0; stroke-linejoin: miter"> <path d="M270.11282,439.2071C265.6791,440.64764,260.12097,442.64005,236.60027,451.24725C227.55006,454.5561,222.58366,456.31866,221.81209,456.46072C221.60083,456.50723,221.41818,456.60828,221.41101,456.67633C221.39125,456.86337,223.36899,458.00073,224.5727,458.48892C227.11252,459.51367,228.67253,459.8848,232.53903,460.3962L236.37335,460.88712L242.3615,457.7536C255.53912,450.85693,269.65308,443.88724,273.07712,442.56366C273.5069,442.4027,273.8927,442.16833,273.95807,442.03763C274.08344,441.82736,272.55664,438.53662,272.3525,438.51508C272.28452,438.50784,271.28906,438.8154,270.11282,439.2071 Z"/> </g> <g style="fill:rgb(0,0,0); fill-opacity:1.0; stroke-linejoin: miter"> <path d="M50.483036,432.18976C51.638683,432.47266,51.72076,432.60004,52.196102,434.45685C52.68246,436.4148,52.719814,436.44476,54.15963,436.833C54.967438,437.05164,60.37151,438.47272,66.16079,439.98816C78.61083,443.1966,88.92478,446.19513,95.58435,448.50165C100.50523,450.18005,101.40672,450.32025,107.51316,450.36957C109.185684,450.39154,111.81969,450.47894,113.33115,450.5866C114.84261,450.6944,118.887634,450.5937,122.3343,450.31976L128.62506,449.87177L129.67053,451.01874C130.25298,451.67096,130.89484,452.5553,131.1184,453.0421C131.49875,453.71637,131.45345,453.92578,130.91759,454.32513C130.15334,454.81763,130.301,455.8581,131.59703,458.98874C132.06253,460.1309,132.48152,462.0961,132.74988,464.5549C133.12119,467.95688,133.23268,468.35373,133.87573,468.62436C134.87401,469.0267,136.60912,471.49588,137.39069,473.6601C138.22432,475.98914,139.1312,484.9225,138.92194,488.62637C138.76346,491.2341,138.70712,491.3425,136.91835,493.37827C135.92076,494.5438,134.83258,496.12814,134.50558,496.87955C133.36295,499.5264,129.16492,501.34805,118.78453,503.6739C114.359856,504.66815,103.03329,506.75653,100.77651,507.0028C100.50706,507.03223,100.25159,505.62854,99.86499,502.39862C99.42383,498.35672,99.18982,497.462,98.157776,495.18875C96.45508,491.455,94.39841,488.8505,90.957695,486.05618C87.55432,483.29184,84.27593,481.67273,80.150635,480.72552C77.5662,480.15555,76.95256,480.15433,72.3043,480.66165C67.65605,481.16898,67.057106,481.30252,64.65649,482.4166C60.80264,484.2689,57.98072,486.51962,55.253796,489.95303C52.470543,493.49484,51.30217,495.9059,50.298637,500.13965C49.59328,503.0456,49.607376,503.48718,50.095734,508.27374C50.397186,511.0357,50.870155,514.12,51.115173,515.1157L51.58314,516.90515L46.74443,517.2288C44.068806,517.3845,12.530545,520.7244,-23.409184,524.6471C-85.4532,531.4188,-88.69048,531.73804,-88.51353,531.1734C-88.449196,530.82556,-88.26989,529.03357,-88.16892,527.14795C-88.03619,524.3044,-88.11277,523.2902,-88.740036,520.666C-90.13175,514.7851,-93.373566,509.75366,-98.03247,506.10394C-111.40766,495.6682,-131.4299,501.46655,-137.2495,517.4737C-138.79567,521.73254,-139.04723,524.1118,-138.47684,529.02576C-138.22316,531.35,-137.78268,533.82416,-137.46971,534.50574C-137.18675,535.2247,-136.9785,535.88367,-137.0385,535.9584C-137.22221,536.14886,-146.1954,536.3784,-148.63103,536.23517C-151.75131,536.0645,-152.84329,535.74054,-154.1472,534.724C-156.24295,533.0099,-156.66742,531.93146,-156.7491,527.74805C-156.84052,524.72455,-157.03227,523.27985,-157.96454,519.73456C-159.39792,514.09674,-160.13316,507.3601,-159.64156,504.68195C-158.48073,498.45422,-149.98912,493.81226,-126.132,486.30023C-110.9087,481.503,-101.13087,479.27692,-88.387054,477.6815C-75.104355,476.02725,-75.040665,475.98618,-72.70195,473.99265C-68.11449,470.11765,-51.66915,458.40427,-42.183098,452.25635C-34.540333,447.33197,-29.439587,445.037,-20.813759,442.56177C-7.7590013,438.81924,13.226049,436.22208,36.482666,435.388L41.983418,435.1966L44.10415,433.70404C46.412273,432.05463,48.17173,431.62402,50.483036,432.18976 Z M6.366783,444.26474C6.342903,444.98312,6.1148,450.7,5.810765,456.97064C5.5067196,463.24127,5.358172,468.43826,5.4365487,468.53195C5.7317414,468.7383,42.365234,463.99005,49.229805,462.86597C60.376377,461.00174,62.48428,460.32864,64.59945,457.84818C66.71829,455.40146,67.28653,453.73752,67.02612,451.0392C66.69525,448.00772,65.8666,446.97342,62.688663,445.65012C52.627625,441.53342,33.243843,440.37686,10.848992,442.5485L6.4328375,442.99637L6.366783,444.26474 Z M-16.074028,446.95264C-32.49035,451.437,-37.94378,454.24768,-50.69384,464.842C-53.94321,467.54837,-54.400658,468.0414,-53.42385,467.93484C-52.41334,467.82455,-50.559498,468.88333,-49.82824,469.96237C-49.335793,470.72665,-49.15021,471.49033,-49.141537,472.8187L-49.148804,474.62595L-28.265375,472.34665L-7.415627,470.071L-7.1480484,469.08746C-5.8028274,464.237,-2.2345138,447.58942,-2.0692575,445.35596L-1.9621482,444.15128L-6.4536285,444.84598C-8.931447,445.25272,-13.258752,446.2022,-16.074028,446.95264 Z"/> </g> <g style="fill:rgb(0,0,0); fill-opacity:1.0; stroke-linejoin: miter"> <path d="M76.786026,481.12692C88.20772,482.09583,97.21684,490.31516,99.1931,501.5518C100.44773,508.67474,98.304054,516.20276,93.51521,521.6676C91.02893,524.49524,88.72817,526.21204,85.23011,527.8889C82.54473,529.2046,82.08051,529.3234,77.66437,529.77136C73.386635,530.2383,72.70564,530.2444,70.154854,529.67065C61.51903,527.682,54.85129,521.8656,51.847538,513.7065C50.738297,510.72595,50.244965,504.6446,50.8609,501.54388C52.558075,492.73538,58.334045,485.6971,66.38476,482.63705C69.2006,481.5798,73.89783,480.89676,76.786026,481.12692 Z M67.785126,489.8464C59.95798,493.3934,55.813,502.5713,58.42417,510.56873C59.617977,514.32404,61.158947,516.57574,64.222404,519.0364C67.02801,521.32043,69.35342,522.3278,72.8173,522.83594C83.27263,524.3192,92.752426,515.6157,92.36541,504.88733C92.17156,498.73935,88.43366,492.90988,82.95358,490.16776C80.93131,489.12735,77.5991,488.26407,75.50767,488.15146C73.62571,488.08426,69.82996,488.9075,67.785126,489.8464 Z"/> </g> <g style="fill:rgb(0,0,0); fill-opacity:1.0; stroke-linejoin: miter"> <path d="M78.05793,490.9066C78.72365,491.07254,79.99503,491.4791,80.813866,491.79874L82.37679,492.37802L79.886246,495.47885C78.50594,497.19736,77.257286,498.5607,77.07784,498.478C76.93209,498.39163,76.59882,496.5875,76.367226,494.46548C75.91137,490.2888,75.88503,490.35983,78.05793,490.9066 Z"/> </g> <g style="fill:rgb(0,0,0); fill-opacity:1.0; stroke-linejoin: miter"> <path d="M71.31113,494.98325C71.5464,497.1389,71.61018,498.9725,71.48648,499.08823C71.329094,499.20767,69.81576,498.14584,68.09723,496.76547L64.95905,494.24496L67.03815,492.9955C68.15822,492.3279,69.476746,491.60458,69.967285,491.4147L70.88835,491.1097L71.31113,494.98325 Z"/> </g> <g style="fill:rgb(0,0,0); fill-opacity:1.0; stroke-linejoin: miter"> <path d="M87.52692,497.40567C88.183464,498.4247,88.910484,499.7769,89.107704,500.3348L89.464806,501.4206L85.5576,501.84705C83.43556,502.0786,81.60197,502.1424,81.48621,502.01868C81.3668,501.86127,82.42866,500.348,83.80896,498.6295L86.2995,495.52866L87.52692,497.40567 Z"/> </g> <g style="fill:rgb(0,0,0); fill-opacity:1.0; stroke-linejoin: miter"> <path d="M65.0586,500.7782C66.74345,502.16223,68.03572,503.38452,67.94939,503.53027C67.829346,503.6797,65.987816,503.98297,63.8658,504.21454L60.025944,504.63367L60.12511,503.66852C60.25796,502.69965,61.65465,498.32083,61.85674,498.29874C61.924107,498.2914,63.373764,499.39426,65.0586,500.7782 Z"/> </g> <g style="fill:rgb(0,0,0); fill-opacity:1.0; stroke-linejoin: miter"> <path d="M75.30805,500.3753C75.35952,500.84692,75.272575,501.29944,75.1152,501.41895C74.54935,501.8556,73.712135,501.36755,73.62391,500.55914C73.554054,499.91922,73.704094,499.7324,74.37775,499.6589C75.051414,499.58536,75.23821,499.73538,75.30805,500.3753 Z"/> </g> <g style="fill:rgb(0,0,0); fill-opacity:1.0; stroke-linejoin: miter"> <path d="M76.37141,503.8722C77.30538,504.6223,77.51185,506.20178,76.78066,506.99738C76.01946,507.83026,74.33165,507.9804,73.577095,507.31287C72.180115,506.06793,72.963264,503.5625,74.78214,503.36395C75.253685,503.3125,75.96046,503.54218,76.37141,503.8722 Z"/> </g> <g style="fill:rgb(0,0,0); fill-opacity:1.0; stroke-linejoin: miter"> <path d="M80.91194,504.87634C81.018555,505.8531,80.25061,506.3119,79.5034,505.71167C78.75621,505.11163,79.0385,504.26276,80.01532,504.15613C80.655304,504.08624,80.84209,504.23633,80.91194,504.87634 Z"/> </g> <g style="fill:rgb(0,0,0); fill-opacity:1.0; stroke-linejoin: miter"> <path d="M70.90871,505.66138C71.21434,506.27563,70.404144,507.28424,69.73844,507.11835C69.454285,507.013,69.1707,506.60083,69.12291,506.16296C69.05306,505.52295,69.20308,505.33618,69.84306,505.2663C70.280945,505.2185,70.74457,505.4065,70.90871,505.66138 Z"/> </g> <g style="fill:rgb(0,0,0); fill-opacity:1.0; stroke-linejoin: miter"> <path d="M89.985634,506.81714C90.05549,507.45715,89.2638,510.5089,88.74149,511.65662L88.15913,512.879L85.05833,510.38855C83.34346,509.04187,82.01383,507.78955,82.09649,507.61005C82.288155,507.1801,89.94152,506.41296,89.985634,506.81714 Z"/> </g> <g style="fill:rgb(0,0,0); fill-opacity:1.0; stroke-linejoin: miter"> <path d="M68.55598,509.08795C68.6754,509.24536,67.64724,510.755,66.26326,512.43994L63.772713,515.5407L62.94036,514.4727C62.18275,513.46466,60.75136,510.65558,60.681507,510.01556C60.637394,509.6114,68.27608,508.70947,68.55598,509.08795 Z"/> </g> <g style="fill:rgb(0,0,0); fill-opacity:1.0; stroke-linejoin: miter"> <path d="M76.51259,510.16235C76.643036,510.42084,76.52243,510.877,76.28238,511.17596C75.68225,511.9231,74.83342,511.64087,74.7268,510.664C74.65695,510.02405,74.80699,509.83728,75.44696,509.76746C75.88486,509.71967,76.348465,509.90765,76.51259,510.16235 Z"/> </g> <g style="fill:rgb(0,0,0); fill-opacity:1.0; stroke-linejoin: miter"> <path d="M82.09441,514.46124L85.01211,516.8354L84.232544,517.49994C83.26189,518.28754,80.35909,519.79736,79.651764,519.8746C79.24756,519.91864,79.073,519.25604,78.72374,516.0562C78.40758,513.1595,78.40201,512.17163,78.738846,512.1348C78.97464,512.10913,80.48797,513.171,82.09441,514.46124 Z"/> </g> <g style="fill:rgb(0,0,0); fill-opacity:1.0; stroke-linejoin: miter"> <path d="M73.67131,516.60767C74.02056,519.8075,73.99303,520.4921,73.588844,520.53625C72.88151,520.61346,69.72137,519.76544,68.60366,519.20575L67.69909,518.72504L70.03594,515.77734C71.32623,514.17096,72.57487,512.8076,72.810646,512.78186C73.147484,512.7451,73.355156,513.71094,73.67131,516.60767 Z"/> </g> <g style="fill:rgb(0,0,0); fill-opacity:1.0; stroke-linejoin: miter"> <path d="M-111.834816,501.74774C-99.806816,502.6505,-90.43998,511.64893,-89.17591,523.54266C-88.727425,527.652,-89.13758,530.7642,-90.54839,534.70166C-91.59793,537.5771,-92.16867,538.59375,-94.516525,541.44037C-98.66113,546.56226,-103.175156,549.23627,-109.43344,550.2943C-122.25316,552.44336,-134.49896,544.2363,-137.34799,531.56116C-139.05826,524.01074,-137.13872,516.30273,-132.09085,510.40063C-129.5219,507.3935,-127.23213,505.57562,-124.11989,504.11115C-119.97389,502.12488,-116.23448,501.40997,-111.834816,501.74774 Z M-120.641014,510.37793C-123.34479,511.52515,-126.83054,514.5642,-128.20836,516.93005C-128.78278,517.91296,-129.59842,519.8085,-130.065,521.1546C-130.78755,523.2785,-130.84508,524.00055,-130.63423,527.18146C-130.44179,530.19385,-130.23044,531.1934,-129.41093,533.0809C-127.570984,537.44727,-123.9704,540.76953,-119.35631,542.44727C-107.21912,546.8487,-94.85603,537.08057,-96.2567,524.2473C-96.760345,519.6328,-98.63946,516.1568,-102.33008,512.9467C-107.40665,508.59265,-114.29709,507.60645,-120.641014,510.37793 Z"/> </g> <g style="fill:rgb(0,0,0); fill-opacity:1.0; stroke-linejoin: miter"> <path d="M-110.04663,511.57343C-108.19161,512.01855,-106.363495,512.84155,-106.32306,513.2121C-106.267914,513.7173,-111.0794,519.28687,-111.43828,519.1216C-112.01767,518.8099,-112.811165,511.2276,-112.27222,511.16876C-112.032745,511.17664,-111.02653,511.33954,-110.04663,511.57343 Z"/> </g> <g style="fill:rgb(0,0,0); fill-opacity:1.0; stroke-linejoin: miter"> <path d="M-116.97661,515.53375C-116.65309,518.4978,-116.6512,519.45197,-117.00701,519.62714C-117.26547,519.75757,-118.69672,518.8231,-120.52734,517.3527L-123.59448,514.8585L-121.58273,513.61646C-120.46634,512.9152,-119.04677,512.1808,-118.4852,512.0173L-117.39938,511.66022L-116.97661,515.53375 Z"/> </g> <g style="fill:rgb(0,0,0); fill-opacity:1.0; stroke-linejoin: miter"> <path d="M-101.966705,516.58813C-101.16378,517.38666,-99.89963,519.6005,-99.531494,520.78735L-99.1597,522.0079L-103.06692,522.4343C-105.99733,522.75415,-106.98517,522.75964,-107.02193,522.42285C-107.04766,522.1871,-106.01582,520.7111,-104.72554,519.1047C-102.895134,516.8258,-102.27293,516.2807,-101.966705,516.58813 Z"/> </g> <g style="fill:rgb(0,0,0); fill-opacity:1.0; stroke-linejoin: miter"> <path d="M-123.415924,521.1787C-121.84683,522.439,-120.51722,523.69135,-120.491486,523.9271C-120.458405,524.2302,-121.5252,524.4489,-124.45566,524.7688L-128.4976,525.20996L-128.15353,523.36597C-127.84312,521.5256,-126.868904,518.89703,-126.49839,518.85657C-126.39733,518.8456,-125.0224,519.8885,-123.415924,521.1787 Z"/> </g> <g style="fill:rgb(0,0,0); fill-opacity:1.0; stroke-linejoin: miter"> <path d="M-113.110115,520.6674C-112.979675,520.92584,-113.09294,521.44946,-113.36301,521.7857C-113.81311,522.3461,-113.88046,522.35345,-114.44084,521.9034C-115.22539,521.2732,-114.987816,520.327,-114.07839,520.2277C-113.70788,520.1873,-113.27796,520.37897,-113.110115,520.6674 Z"/> </g> <g style="fill:rgb(0,0,0); fill-opacity:1.0; stroke-linejoin: miter"> <path d="M-112.19681,524.351C-111.01663,525.48334,-110.91854,527.0065,-112.01291,527.9098C-113.19728,528.9253,-115.620056,527.96265,-115.78548,526.44696C-115.98401,524.62805,-113.48541,523.1625,-112.19681,524.351 Z"/> </g> <g style="fill:rgb(0,0,0); fill-opacity:1.0; stroke-linejoin: miter"> <path d="M-107.50623,525.1683C-107.37576,525.42676,-107.48903,525.9504,-107.759094,526.2867C-108.2092,526.84705,-108.27658,526.8544,-108.83695,526.40436C-109.621506,525.7742,-109.38393,524.8279,-108.47447,524.72864C-108.10396,524.6882,-107.67404,524.8799,-107.50623,525.1683 Z"/> </g> <g style="fill:rgb(0,0,0); fill-opacity:1.0; stroke-linejoin: miter"> <path d="M-117.61113,526.2712C-117.48067,526.5297,-117.59395,527.0533,-117.86399,527.3896C-118.3141,527.94995,-118.38147,527.9573,-118.94185,527.50726C-119.726395,526.8771,-119.48883,525.9308,-118.57941,525.83154C-118.20889,525.79114,-117.778946,525.9828,-117.61113,526.2712 Z"/> </g> <g style="fill:rgb(0,0,0); fill-opacity:1.0; stroke-linejoin: miter"> <path d="M-98.59476,527.80865C-98.52125,528.48236,-99.82056,532.81647,-100.24066,533.3395C-100.450714,533.601,-106.323425,528.82263,-106.37489,528.3511C-106.41167,528.01416,-105.44589,527.8065,-102.54915,527.49036C-98.74298,527.07495,-98.675644,527.06757,-98.59476,527.80865 Z"/> </g> <g style="fill:rgb(0,0,0); fill-opacity:1.0; stroke-linejoin: miter"> <path d="M-119.99022,529.76886C-119.75134,530.0836,-124.15192,535.98346,-124.69087,536.0423C-124.994,536.0754,-127.27669,532.3367,-127.6785,531.1535L-127.97984,530.266L-124.14,529.8469C-121.68111,529.5785,-120.18436,529.5515,-119.99022,529.76886 Z"/> </g> <g style="fill:rgb(0,0,0); fill-opacity:1.0; stroke-linejoin: miter"> <path d="M-112.00724,530.77234C-111.83207,531.1281,-111.96007,531.51697,-112.297485,531.8606C-112.79596,532.29,-112.964386,532.30835,-113.412704,531.94824C-113.71157,531.7081,-113.897766,531.2513,-113.82612,530.9709C-113.633865,530.23413,-112.35393,530.0944,-112.00724,530.77234 Z"/> </g> <g style="fill:rgb(0,0,0); fill-opacity:1.0; stroke-linejoin: miter"> <path d="M-106.34276,534.8918L-103.27559,537.3859L-105.28369,538.6618C-106.40007,539.3631,-107.81966,540.0974,-108.41492,540.26465L-109.47072,540.5843L-109.89349,536.7108C-110.21333,533.7804,-110.21888,532.79266,-109.86308,532.61743C-109.60462,532.487,-108.17337,533.42145,-106.34276,534.8918 Z"/> </g> <g style="fill:rgb(0,0,0); fill-opacity:1.0; stroke-linejoin: miter"> <path d="M-115.48813,533.2314C-115.14026,533.2956,-114.914215,534.42993,-114.609085,537.2255L-114.18631,541.099L-115.492004,541.00287C-116.65927,540.92584,-119.97623,539.89044,-120.57764,539.37665C-120.98491,539.0802,-116.01543,533.0844,-115.48813,533.2314 Z"/> </g> <g style="fill:rgb(0,0,0); fill-opacity:1.0; stroke-linejoin: miter"> <path d="M152.98654,543.5683C152.80536,522.0253,152.9705,511.16617,153.57178,511.50302C154.08755,511.84067,154.52733,523.4642,154.69629,543.5539C154.86525,563.6436,154.62106,575.2729,154.11102,575.6192C153.51552,575.9661,153.16772,565.11127,152.98654,543.5683 Z"/> </g> <g style="fill:rgb(0,0,0); fill-opacity:1.0; stroke-linejoin: miter"> <path d="M118.17936,562.5842C118.08886,561.9866,120.01695,557.4391,124.63324,547.22656C125.975174,544.13745,128.32352,538.73145,129.83282,535.2135C133.43695,526.6338,143.44319,506.715,143.87498,507.22433C144.5646,507.9025,138.10641,522.7474,128.27115,542.6647C122.72307,553.91113,118.181526,562.8407,118.17936,562.5842 Z"/> </g> <g style="fill:rgb(0,0,0); fill-opacity:1.0; stroke-linejoin: miter"> <path d="M176.61787,537.5559C165.57611,515.67676,160.43596,504.26382,163.37344,507.91537C165.44815,510.63376,171.87999,523.1472,179.02083,538.6472C187.9017,557.7232,189.03532,560.36395,188.52238,560.3682C188.26591,560.3704,182.96487,550.15564,176.61787,537.5559 Z"/> </g> <g style="fill:rgb(0,0,0); fill-opacity:1.0; stroke-linejoin: miter"> <path d="M139.42557,547.44403C139.41766,546.5037,139.67198,546.2452,139.9342,546.9268C140.1957,547.52313,140.11665,548.2933,139.86235,548.5518C139.60875,548.89594,139.34798,548.3852,139.42557,547.44403 Z"/> </g> <g style="fill:rgb(0,0,0); fill-opacity:1.0; stroke-linejoin: miter"> <path d="M165.88374,542.0919C165.87584,541.1515,166.13011,540.89294,166.39233,541.5747C166.65384,542.1709,166.57486,542.94104,166.32056,543.1996C166.06696,543.5437,165.80617,543.03296,165.88374,542.0919 Z"/> </g> <g style="fill:rgb(0,0,0); fill-opacity:1.0; stroke-linejoin: miter"> <path d="M141.0778,540.59064C141.06989,539.6502,141.3242,539.39166,141.5864,540.0734C141.84796,540.6696,141.76889,541.43976,141.51457,541.6984C141.26099,542.04254,141.0002,541.5317,141.0778,540.59064 Z"/> </g> <g style="fill:rgb(0,0,0); fill-opacity:1.0; stroke-linejoin: miter"> <path d="M192.17741,537.5107C191.05453,536.15216,191.13933,536.066,192.51651,537.16583C193.89366,538.2657,194.32684,538.94586,193.64291,538.9517C193.47198,538.95306,192.7823,538.27496,192.17741,537.5107 Z"/> </g> <g style="fill:rgb(0,0,0); fill-opacity:1.0; stroke-linejoin: miter"> <path d="M141.9901,537.2487C141.9822,536.3083,143.38087,529.799,145.11642,522.6884C146.93823,515.66254,148.1846,511.37735,147.94398,513.2603C147.38292,517.71063,142.00879,539.4714,141.9901,537.2487 Z"/> </g> <g style="fill:rgb(0,0,0); fill-opacity:1.0; stroke-linejoin: miter"> <path d="M123.258804,526.121C128.07703,519.5829,133.4907,512.6979,135.18465,510.80276C138.1494,507.52902,138.1494,507.52902,134.60065,512.5175C130.12369,518.9673,115.23594,537.9012,114.80851,537.9047C114.55204,537.9069,118.35442,532.5742,123.258804,526.121 Z"/> </g> <g style="fill:rgb(0,0,0); fill-opacity:1.0; stroke-linejoin: miter"> <path d="M161.10997,523.4088C159.25209,515.9865,157.91728,509.75656,158.17232,509.58353C158.68091,509.06625,165.05396,534.91736,164.72063,535.94604C164.55399,536.4606,162.88152,530.74646,161.10997,523.4088 Z"/> </g> <g style="fill:rgb(0,0,0); fill-opacity:1.0; stroke-linejoin: miter"> <path d="M185.95753,529.86847C179.56313,521.8003,169.62415,509.05972,168.6708,507.52884C166.67728,504.29684,174.19095,513.296,182.31673,523.9144C191.65155,535.97614,194.16379,539.88776,185.95753,529.86847 Z"/> </g> <g style="fill:rgb(0,0,0); fill-opacity:1.0; stroke-linejoin: miter"> <path d="M168.9261,446.39838C172.97993,440.46515,184.73555,425.23386,185.67157,424.713C186.35188,424.27985,186.35403,424.53632,185.67732,425.3969C176.20837,438.04416,171.38803,444.32584,169.18616,446.82367L166.56125,449.83804L168.9261,446.39838 Z"/> </g> <g style="fill:rgb(0,0,0); fill-opacity:1.0; stroke-linejoin: miter"> <path d="M162.9312,445.16635C164.51736,440.6219,186.94867,393.5824,187.37895,393.92078C187.72455,394.34534,171.44972,431.3301,167.41243,439.22958C162.95421,447.90195,161.09503,450.4825,162.9312,445.16635 Z"/> </g> <g style="fill:rgb(0,0,0); fill-opacity:1.0; stroke-linejoin: miter"> <path d="M129.36087,438.43817C117.26313,423.151,116.74444,422.4714,117.17187,422.4678C117.77032,422.46277,127.18556,433.92526,132.80554,441.4015C135.4859,444.96976,137.5628,447.94455,137.30634,447.94672C137.0499,447.94885,133.50816,443.61844,129.36087,438.43817 Z"/> </g> <g style="fill:rgb(0,0,0); fill-opacity:1.0; stroke-linejoin: miter"> <path d="M138.86945,440.66656C136.61298,436.66733,131.91609,427.13147,128.43259,419.55176C124.94908,411.97214,120.85635,403.1151,119.37645,399.96432C114.15153,388.63748,116.84049,393.2316,126.66029,412.1287C136.82846,431.79236,143.96648,446.95026,143.28833,447.6399C143.11954,447.89783,141.12668,444.7513,138.86945,440.66656 Z"/> </g> <g style="fill:rgb(0,0,0); fill-opacity:1.0; stroke-linejoin: miter"> <path d="M157.62012,443.92862C157.86868,442.9861,159.35071,436.21957,160.99933,428.93872C163.72049,417.03214,164.71689,413.5185,164.73486,415.65576C164.74997,417.451,158.72572,443.23538,157.96567,444.35318C157.37587,445.3841,157.28964,445.2993,157.62012,443.92862 Z"/> </g> <g style="fill:rgb(0,0,0); fill-opacity:1.0; stroke-linejoin: miter"> <path d="M144.45273,433.6091C141.8859,423.20038,140.89444,417.13864,142.65096,422.68103C144.23001,427.45538,147.95782,443.75345,147.53398,444.18445C147.36447,444.35684,145.95634,439.581,144.45273,433.6091 Z"/> </g> <g style="fill:rgb(0,0,0); fill-opacity:1.0; stroke-linejoin: miter"> <path d="M151.87135,410.97626C151.69089,389.51874,151.85605,378.65955,152.4573,378.9965C153.6599,379.67035,154.197,443.5299,153.00017,443.53998C152.48723,443.5443,152.04895,432.0918,151.87135,410.97626 Z"/> </g> <g style="fill:rgb(0,0,0); fill-opacity:1.0; stroke-linejoin: miter"> <path d="M187.44313,421.87683C188.29008,420.92926,189.1385,420.15268,189.39497,420.15054C189.65141,420.14838,189.14497,420.92203,188.29799,421.86963C187.45105,422.8172,186.6026,423.59378,186.34613,423.59595C186.08966,423.59808,186.59613,422.82437,187.44313,421.87683 Z"/> </g> <g style="fill:rgb(0,0,0); fill-opacity:1.0; stroke-linejoin: miter"> <path d="M115.100746,420.17685C113.97788,418.8184,114.062675,418.73215,115.43986,419.83197C116.81698,420.93192,117.25019,421.61224,116.56626,421.61798C116.3953,421.61942,115.70565,420.94128,115.100746,420.17685 Z"/> </g> <g style="fill:rgb(0,0,0); fill-opacity:1.0; stroke-linejoin: miter"> <path d="M140.90451,418.33548C140.89659,417.3951,141.15091,417.1365,141.41313,417.81824C141.6746,418.41452,141.59563,419.1846,141.34131,419.44324C141.08772,419.78735,140.82697,419.27658,140.90451,418.33548 Z"/> </g> <g style="fill:rgb(0,0,0); fill-opacity:1.0; stroke-linejoin: miter"> <path d="M189.55586,418.9522C189.55443,418.78125,190.2326,418.09158,191.0824,417.486C192.3554,416.36383,192.44165,416.4486,191.34175,417.82578C190.24196,419.2029,189.56161,419.63617,189.55586,418.9522 Z"/> </g> <g style="fill:rgb(0,0,0); fill-opacity:1.0; stroke-linejoin: miter"> <path d="M140.02086,414.92313C140.01295,413.98276,140.26726,413.72412,140.52945,414.40594C140.79102,415.00217,140.71194,415.7723,140.45763,416.0309C140.20404,416.37506,139.94325,415.8643,140.02086,414.92313 Z"/> </g> <g style="fill:rgb(0,0,0); fill-opacity:1.0; stroke-linejoin: miter"> <path d="M164.79807,413.00482C164.79015,412.0645,165.04443,411.8059,165.30666,412.48764C165.56816,413.08386,165.48918,413.854,165.23486,414.11264C164.98128,414.45676,164.72049,413.94598,164.79807,413.00482 Z"/> </g> <g style="fill:rgb(0,0,0); fill-opacity:1.0; stroke-linejoin: miter"> <path d="M139.1372,411.51083C139.1293,410.57047,139.3836,410.31183,139.6458,410.99356C139.9073,411.58987,139.82832,412.36,139.57402,412.61856C139.32042,412.96268,139.05966,412.4519,139.1372,411.51083 Z"/> </g> <g style="fill:rgb(0,0,0); fill-opacity:1.0; stroke-linejoin: miter"> <path d="M165.62419,409.57816C165.61627,408.6378,165.87054,408.37915,166.13277,409.0609C166.39427,409.6572,166.31523,410.4273,166.06094,410.68588C165.80736,411.03003,165.54659,410.51923,165.62419,409.57816 Z"/> </g> <g style="fill:rgb(0,0,0); fill-opacity:1.0; stroke-linejoin: miter"> <path d="M-8.700345,461.366C-8.573712,461.45602,-8.459241,461.5488,-8.396787,461.69547C-8.333768,461.8434,-8.322523,462.0481,-8.317915,462.26593L-8.681241,461.7905L-8.700894,461.36606L-8.700345,461.366 Z M-10.202175,460.7195C-9.977901,461.0793,-9.769909,461.43533,-9.640959,461.78156C-9.511778,462.1283,-9.461622,462.46588,-9.426161,462.80414L-10.202709,460.71957L-10.202175,460.7195 Z M-22.039368,462.3508C-21.786743,462.77194,-21.531937,463.19424,-21.225817,463.57022C-20.920961,463.9446,-20.56577,464.27237,-20.2112,464.59738L-20.211628,464.59744L-21.249208,465.49002C-21.20595,465.20126,-21.177233,464.90414,-21.349962,464.6456C-21.445498,464.5026,-21.601976,464.37296,-21.762682,464.23935C-21.918383,464.1099,-22.079638,463.97568,-22.204851,463.81815C-22.461092,463.49576,-22.56607,463.0759,-22.50978,462.81577C-22.456696,462.57047,-22.25882,462.4612,-22.03978,462.3508 Z M-22.74843,466.65927L-22.774508,466.6639L-22.774538,466.6639L-22.74843,466.65927 Z M-8.936583,465.9535C-8.257583,466.4973,-7.613265,467.02606,-7.287719,467.42804C-6.961852,467.83044,-6.958129,468.1026,-6.9817343,468.36798L-8.937132,465.95355L-8.936583,465.9535 Z M-12.27619,493.4704L-12.2582,493.60645L-12.2582,493.6065L-12.27619,493.4704 Z M-9.493714,479.11664C-9.208894,479.3731,-8.912966,479.6482,-8.310015,480.4322C-7.684435,481.24548,-6.729281,482.6057,-5.772768,483.9679L-5.7733173,483.9679C-5.795412,484.2577,-5.815859,484.5581,-5.599765,484.86597C-5.3877587,485.16785,-4.94797,485.4756,-4.511355,485.77887L-4.5119348,485.77893C-4.6014276,485.9124,-4.6910424,486.05267,-4.7271447,486.23468C-4.7636285,486.4184,-4.745135,486.64307,-4.7250695,486.8639L-4.72568,486.86395C-5.186908,487.27954,-5.6492186,487.69678,-6.111041,488.19257C-6.5752597,488.69104,-7.0387454,489.26868,-7.5013466,489.84546L-7.5074806,489.8531C-7.51569,489.86334,-7.5164223,489.8777,-7.5093575,489.88873L-7.390492,490.0738L-12.176641,493.80878L-12.177679,493.79865L-12.178167,493.79858C-12.174566,493.79285,-12.172918,493.78583,-12.17388,493.7785L-12.197531,493.59937L-12.200537,493.56934C-12.20075,493.56714,-12.201193,493.56506,-12.201818,493.56305L-12.202337,493.56305L-12.243673,493.25012C-12.244757,493.242,-12.248968,493.23474,-12.255438,493.2298L-13.737905,492.09784L-14.907139,490.1552L-14.90749,490.1552C-14.564656,489.92462,-14.222875,489.6897,-14.106388,488.60376C-13.992038,487.53796,-14.0936775,485.64392,-14.197863,483.74323L-14.198351,483.7433C-14.196978,483.74286,-14.195681,483.7423,-14.194384,483.74176C-13.581102,483.46136,-12.964968,483.1795,-12.176349,482.4021C-11.395127,481.63177,-10.444245,480.3745,-9.494264,479.11664 Z M-18.352303,448.38943C-18.468727,448.38943,-18.583738,448.39368,-18.697477,448.40167C-19.624386,448.4668,-20.467236,448.7823,-21.304956,449.09906C-21.307014,449.09857,-21.309114,449.09836,-21.31119,449.09836C-21.31196,449.09836,-21.312727,449.0984,-21.313486,449.09845C-21.322367,449.099,-21.330698,449.10358,-21.336084,449.1109L-21.336527,449.11102L-21.336832,449.11102C-21.352594,449.117,-21.360529,449.13464,-21.354563,449.1504L-21.354532,449.15045C-21.508661,449.49304,-21.67222,449.82928,-22.2044,450.1308C-22.278769,450.1729,-22.360296,450.21436,-22.447943,450.2589C-23.01444,450.54688,-23.803444,450.94867,-24.277775,452.36865C-24.822426,453.99933,-24.952827,456.97742,-25.082682,459.9495L-25.0832,459.96164L-25.083582,459.9617C-25.316935,461.14676,-25.551004,462.33652,-25.499401,463.42447C-25.447704,464.5131,-25.109724,465.5034,-24.6064,466.0389C-24.154327,466.5198,-23.572115,466.62997,-22.985872,466.70084L-22.9863,466.70084L-24.538239,466.97244C-24.543493,466.96216,-24.554113,466.95584,-24.565378,466.95584C-24.566086,466.95584,-24.566793,466.95584,-24.567505,466.9559C-24.570099,466.9561,-24.572708,466.95657,-24.575272,466.9575C-25.513744,467.2773,-26.464855,467.60043,-27.04097,468.66415C-27.579601,469.65848,-27.789015,471.29947,-27.977995,472.97116L-28.158339,470.6768C-28.159391,470.66336,-28.169065,470.65225,-28.182173,470.64932L-33.603092,469.4448C-33.60518,469.4443,-33.6073,469.4441,-33.609425,469.4441C-33.610252,469.4441,-33.611084,469.44412,-33.61191,469.44418L-33.612232,469.44418L-35.689617,469.6154C-35.706448,469.6168,-35.718945,469.63156,-35.717556,469.64835C-35.716656,469.65927,-35.710094,469.66843,-35.70097,469.67307L-35.70123,469.67307L-34.479477,483.28754L-34.479782,483.2876C-34.670013,483.3122,-34.860657,483.33765,-35.027863,483.37628C-35.211273,483.41858,-35.371933,483.47778,-35.472717,483.57385C-35.66832,483.76013,-35.62549,484.07202,-35.58545,484.36096L-35.585754,484.36102C-35.930153,484.83597,-36.27772,485.31604,-36.391094,485.62524C-36.507336,485.94226,-36.38072,486.08728,-36.256985,486.2199L-36.25726,486.21997L-36.217236,486.83105L-36.217525,486.83105C-36.33906,486.99628,-36.475933,487.18152,-36.427044,487.34058C-36.379498,487.495,-36.15823,487.6123,-35.953266,487.71973L-35.95354,487.7198C-35.981617,487.96204,-36.008183,488.21307,-35.917255,488.43317C-35.824574,488.6576,-35.611057,488.84637,-35.404804,489.0288L-35.405094,489.0288C-35.24184,489.33533,-35.072483,489.65344,-34.802494,489.79602C-34.65256,489.87518,-34.47315,489.89938,-34.282867,489.89938C-34.211857,489.89938,-34.13933,489.896,-34.066257,489.89087C-33.989857,489.8855,-33.912846,489.87823,-33.836338,489.8708L-33.836063,489.8708L-33.74787,491.50378C-33.747032,491.51917,-33.7349,491.53143,-33.719597,491.53253L-29.117687,491.8697L-29.118008,491.8697C-29.281246,492.08643,-29.441723,492.31696,-29.474514,492.8026C-29.508327,493.30334,-29.406353,494.07764,-29.30511,494.8471L-29.305431,494.8471C-29.46135,496.26086,-29.617706,497.67938,-29.48624,498.76532C-29.354893,499.85022,-28.936436,500.60223,-28.519615,501.34827L-28.519966,501.34827C-28.555641,501.54254,-28.591301,501.74292,-28.554115,501.9497C-28.516747,502.15747,-28.406075,502.36987,-28.297676,502.57697L-28.298042,502.57703C-28.327263,503.20728,-28.35627,503.83984,-28.303291,504.47968C-28.250206,505.12054,-28.114893,505.76825,-27.979868,506.4137L-27.980173,506.4137C-28.069696,506.79443,-28.1607,507.1819,-28.147028,507.41595C-28.13273,507.66077,-28.004496,507.74286,-27.88537,507.81848L-27.884531,507.81897C-27.882929,507.82,-27.881205,507.82086,-27.879496,507.82153L-27.879816,507.8216C-27.799389,508.71295,-27.710203,509.64337,-27.24716,512.2622L-27.246887,512.2622Q-19.375637,512.57513,-9.638846,513.01184L-9.6388445,513.01184L-10.339411,507.33575L-10.322458,507.32684L-10.321939,507.32684C-10.32095,507.3269,-10.319959,507.32697,-10.318965,507.32697C-10.318351,507.32697,-10.317736,507.32697,-10.317118,507.3269C-10.31399,507.32666,-10.310801,507.32593,-10.307749,507.3247C-10.097162,507.23914,-9.892176,507.1469,-9.8878565,506.45563C-9.883569,505.77277,-10.073968,504.4906,-10.263573,503.21283L-10.26371,503.21198C-10.413002,502.37415,-10.561989,501.53796,-10.62896,500.92218C-10.651695,500.71295,-10.664986,500.52924,-10.676964,500.36316C-10.686821,500.22723,-10.695808,500.10278,-10.708397,499.98676C-10.725716,499.82776,-10.749947,499.68317,-10.792976,499.54352C-10.853049,499.34863,-10.949378,499.1651,-11.048835,498.97534C-11.1361,498.8089,-11.226127,498.63715,-11.299201,498.4455C-11.456077,498.03418,-11.535682,497.52948,-11.615821,497.0205C-11.617698,497.00873,-11.626121,496.9995,-11.636817,496.99615L-11.637351,496.99615L-11.643073,496.9674L-11.643561,496.9674C-9.83518,496.0171,-8.028874,495.06763,-6.726597,494.32587C-5.4276466,493.58606,-4.6302066,493.05292,-3.8373747,492.52173L-3.8367796,492.52167L-3.2941308,492.98993L-3.2947106,492.99C-3.2949243,492.99762,-3.2923303,493.0053,-3.2867455,493.0114C-3.280788,493.018,-3.2725363,493.0214,-3.264269,493.0214C-3.263516,493.0214,-3.2627628,493.02136,-3.262011,493.0213C-3.2584558,493.02106,-3.25487,493.02014,-3.251513,493.01862L-3.250918,493.01862C-3.249743,493.01862,-3.2485375,493.01862,-3.2473474,493.0185C-3.2395196,493.018,-3.2319207,493.01447,-3.2264123,493.00806C-3.222262,493.00323,-3.219851,492.9975,-3.2192101,492.9917L-3.2197747,492.9917C-2.7085743,492.52625,-2.197786,492.0597,-1.8940138,491.68207C-1.5897081,491.30383,-1.4925857,491.01422,-1.4004073,490.72943L-1.4004214,490.72943L-1.4010019,490.7295C-1.1085519,490.6633,-0.8124701,490.59494,-0.47161898,490.43686C-0.12525949,490.2762,0.26889056,490.0223,0.5344547,489.7189C0.79745543,489.4185,0.9326636,489.07126,1.0645912,488.7291L1.0639808,488.7291C1.3127756,488.6066,1.5655681,488.48074,1.8060926,488.24368C2.0487838,488.0046,2.2781389,487.65305,2.505022,487.3055C2.5117507,487.29514,2.5114307,487.28214,2.505176,487.27237L2.505151,487.27237L2.5045185,487.27243C2.505373,487.2681,2.5052967,487.26358,2.5041676,487.259C2.1141372,485.7054,1.7233745,484.14835,0.85862786,482.47153C0.27648938,481.34277,-0.52006555,480.16028,-1.382752,478.93262C-1.5901495,478.6375,-1.8015448,478.33948,-2.0146186,478.03918C-2.231507,477.7334,-2.4501505,477.42517,-2.6686563,477.11438C-3.990098,475.23383,-5.3022466,473.2594,-6.6147003,471.28406L-6.623764,471.27045L-6.632324,470.4665L-6.632904,470.46655C-6.6297607,470.46234,-6.6276245,470.45715,-6.627075,470.45148C-6.530304,469.52014,-6.432419,468.58142,-6.7603903,467.60474C-7.0842123,466.64056,-7.822707,465.64124,-8.561522,464.64685L-8.562056,464.6469C-8.365934,464.33417,-8.170149,464.01703,-8.052702,463.66724C-7.9311504,463.30554,-7.8937817,462.91003,-7.856718,462.51892C-7.8558636,462.50983,-7.859068,462.50134,-7.8648815,462.49518L-7.865446,462.49524C-7.8542156,461.8736,-7.8468,461.24377,-8.080609,460.8273C-8.118024,460.7606,-8.161725,460.69913,-8.21272,460.64395C-8.319119,460.52878,-8.456204,460.44223,-8.609891,460.34494C-8.822125,460.2106,-9.071607,460.05264,-9.337444,459.76492C-9.505154,459.58334,-9.679699,459.34976,-9.855037,459.03745L-9.855067,459.03738L-9.855098,459.03732C-9.914958,458.93063,-9.975108,458.81448,-10.034938,458.68832C-10.306209,458.11636,-10.574107,457.33463,-10.870662,456.4691C-11.235468,455.40445,-11.643151,454.21445,-12.152214,453.1412C-12.27697,452.8782,-12.407814,452.62222,-12.545723,452.37662C-12.593742,452.29105,-12.642632,452.2067,-12.692436,452.1238C-13.942068,450.04318,-15.747988,448.86328,-17.283522,448.51117C-17.654497,448.42612,-18.009531,448.38943,-18.352303,448.38943 Z"/> </g> <g style="fill:rgb(0,0,0); fill-opacity:1.0; stroke-linejoin: miter"> <path d="M302.67914,445.92883C301.65945,445.92883,300.67194,446.12625,299.83374,446.5058C299.25513,446.7684,298.68604,447.14758,298.23242,447.57184C297.63916,448.12634,297.17023,448.81744,296.87292,449.5744C296.685,450.05414,296.64276,450.36667,296.71674,450.71967L296.7386,450.82742L296.61188,450.95605C296.4024,451.16556,296.10614,451.43756,295.55005,451.92426C294.65875,452.7042,294.35144,452.9958,294.1225,453.2924C293.93964,453.52737,293.87244,453.68182,293.88733,453.82288C293.90552,454.00012,294.0161,454.1394,294.31677,454.36746C294.4425,454.4629,294.49817,454.49997,294.56543,454.52704C294.5796,454.53152,294.5938,454.53497,294.60925,454.5409C294.66736,454.55823,294.71844,454.5768,294.76288,454.59436C294.94977,454.66837,295.0357,454.73392,295.07184,454.82605C295.10297,454.90442,295.08246,454.9867,294.9911,455.1611C294.9466,455.24557,294.89996,455.3439,294.88934,455.3814C294.85828,455.46548,294.8075,455.53473,294.6844,455.64972C294.5332,455.7911,294.4967,455.84482,294.4804,455.9442C294.4583,456.08905,294.51434,456.19983,294.72534,456.4282C294.77008,456.47662,294.80963,456.52902,294.81177,456.54004C294.8202,456.58167,294.76025,456.6471,294.60474,456.7665C294.45483,456.88205,294.40454,456.9407,294.39282,457.00882C294.38208,457.0665,294.39532,457.0958,294.53308,457.3248C294.69434,457.5965,294.74445,457.75137,294.7256,457.92276C294.71143,458.03915,294.70746,458.04926,294.50366,458.42685C294.208,458.97055,294.12878,459.1872,294.1471,459.41895C294.16986,459.70248,294.41168,460.09576,294.69507,460.314C294.82556,460.41367,294.91785,460.4707,295.0832,460.54614L295.21228,460.60645L296.51434,460.8438L296.87286,460.90652L296.83813,460.90106L296.83517,460.90106Q297.192,461.7687,297.71118,462.83334L297.67322,462.82748Q296.5252,463.19403,295.66705,463.38364Q292.19244,464.0348,291.92438,464.14978Q290.79123,464.44855,290.1207,464.90445Q289.1663,465.505,288.30167,467.0256Q287.71115,467.96954,287.14664,469.7253L287.10867,469.7194Q286.54013,470.15085,286.24136,470.3951Q285.3563,471.112,284.9465,471.65344Q284.5018,472.23447,284.37076,472.94357L284.33273,472.9365Q283.25876,473.64063,282.86362,473.96844Q282.57388,474.20227,282.45023,474.37408Q282.40237,474.40582,282.13937,474.93918Q282.05576,475.07324,281.94852,475.19897Q281.73972,475.44775,281.2626,475.87067Q280.6473,476.4123,279.89273,476.97974Q279.4398,477.33887,278.04208,478.2444Q277.75034,478.45297,277.5355,478.66754Q277.30997,478.89474,277.08237,479.23065L277.0447,479.22485C276.98013,479.305,276.94577,479.39453,276.92545,479.516C276.9232,479.5287,276.92026,479.5436,276.91757,479.55743L276.8798,479.5504Q276.8535,479.59375,276.82785,479.6384L275.73062,481.70178Q269.83707,479.52283,266.69217,478.79343L266.6547,478.78638C266.61545,478.76608,266.57767,478.74603,266.54434,478.7254C266.3526,478.6139,266.16507,478.5516,265.7254,478.47635C265.54507,478.44604,265.322,478.41263,265.03903,478.37476C264.46558,478.2904,264.15454,478.25107,263.93414,478.25107C263.75415,478.25107,263.6346,478.2773,263.48193,478.3267C263.4276,478.3444,263.37134,478.36298,263.31485,478.38504L263.27737,478.378Q262.39212,478.44012,261.7796,478.75317Q261.21542,479.02988,260.77136,479.52448L260.74054,479.55884Q260.171,480.36014,259.53986,481.15314L259.50238,481.14612C259.44995,481.2068,259.39185,481.2927,259.34384,481.3825L259.35425,481.38412Q258.55035,482.3792,257.64935,483.3581Q255.73135,485.5315,245.06816,496.8335Q244.99304,496.9736,245.05824,497.0407L245.07304,497.04294C245.05629,497.1566,245.08601,497.25375,245.1595,497.34225C245.23898,497.44354,245.37222,497.60175,245.45044,497.71115C245.52779,497.82043,245.6603,497.93933,245.74223,497.977C245.82263,498.02264,245.91843,498.16797,245.9522,498.3001C245.95941,498.33206,245.96625,498.35687,245.97107,498.38132L245.93387,498.37436Q244.50964,499.6004,243.42648,500.44467L243.42648,500.44467Q252.73808,499.89703,288.10165,496.3721Q300.43515,495.5391,309.04868,495.5391Q309.4277,495.5391,309.79953,495.5407L310.03256,495.5424L313.1185,495.56442L313.1185,495.56442C313.09595,494.98013,313.13147,494.20654,313.1868,494.10773C313.20676,494.07413,313.24875,494.05878,313.3004,494.05878C313.3172,494.05878,313.33502,494.0604,313.35342,494.06354C313.47238,494.08435,313.6171,494.1649,313.6743,494.26273C313.7106,494.3324,313.69345,494.85995,313.63596,495.43582C313.63162,495.4797,313.62732,495.52386,313.62308,495.56805L313.62622,495.56805L316.10754,495.5858L316.10757,495.5858C316.13718,495.12625,316.10458,494.94962,316.0087,494.60193C315.90073,494.19852,315.7753,493.94424,315.55856,493.7067C315.26663,493.39218,315.15622,493.33356,314.2933,493.07526C313.94077,492.97556,313.871,492.91492,313.77383,492.68286C313.71817,492.53662,313.6993,492.36404,313.73355,492.30536C313.76743,492.2477,313.9296,491.71417,314.09476,491.12302C314.25888,490.53287,314.47037,489.90146,314.56546,489.71808C314.6608,489.53363,314.8893,488.84903,315.064,488.19644C315.2388,487.54514,315.47498,486.81308,315.57208,486.57306C315.67694,486.3343,315.88403,485.67975,316.02673,485.1242C316.1698,484.56277,316.40222,483.85516,316.53412,483.54938C316.674,483.24368,316.9043,482.5049,317.0607,481.91248C317.22617,481.2679,317.4177,480.70575,317.5411,480.50067C317.6439,480.31973,317.81442,479.88123,317.9064,479.5289C318.03403,479.0114,318.10587,478.87308,318.256,478.7943C319.0858,478.34763,319.43863,477.82947,319.38992,477.12213C319.34702,476.5224,319.1838,476.3014,318.63687,476.12057C318.4128,476.0396,317.97372,475.93362,317.603,475.8714C317.5604,475.86484,317.5192,475.8572,317.47873,475.85217C317.08807,475.78564,316.6798,475.68436,316.55646,475.6071C316.44086,475.5323,316.10712,475.37024,315.81622,475.24094C314.87012,474.80725,314.66498,474.69244,314.64697,474.56155C314.62177,474.37976,314.6775,474.0527,314.86407,473.23358C315.0473,472.43765,315.13733,470.912,315.03516,470.38135C315.00714,470.21573,314.95184,469.8774,314.93024,469.62503C314.9001,469.37955,314.81964,469.09314,314.74695,469.00122C314.67438,468.9093,314.62158,468.7943,314.62805,468.7562C314.6482,468.63834,314.03882,467.8287,313.80426,467.65118C313.6894,467.56937,313.42865,467.45184,313.22333,467.3856C313.01685,467.32513,312.7514,467.18558,312.63226,467.08408C312.5141,466.97565,312.2674,466.82236,312.0802,466.74112C311.89465,466.65427,311.69983,466.52444,311.6324,466.44876C311.57257,466.3754,311.34796,466.23264,311.12463,466.13162C310.90735,466.0375,310.57257,465.835,310.38,465.6924C310.18817,465.54642,309.96893,465.42114,309.90625,465.41022C309.83606,465.3982,309.64374,465.25217,309.47772,465.09476C309.31268,464.93164,309.11127,464.79242,309.04132,464.78046C308.9707,464.76944,308.85822,464.67853,308.8009,464.589C308.68573,464.4157,308.18445,464.15417,307.84088,464.09616C307.68518,464.0697,307.64117,463.9976,307.58575,463.6605C307.55133,463.4369,307.48712,463.2004,307.43237,463.14447C307.37933,463.07925,307.3354,462.91116,307.32928,462.75723C307.3313,462.60455,307.24536,462.30777,307.15308,462.09418C307.06854,461.89722,306.99963,461.7845,306.89612,461.7009L306.8581,461.6938C306.85895,461.66904,306.8592,461.65005,306.859,461.63577C306.87152,461.3163,306.92944,460.66702,306.9803,460.2775C307.05127,459.75833,307.18262,459.44067,307.50574,459.00323C307.73047,458.6977,307.8894,458.52182,308.40747,457.99722C309.14655,457.24832,309.2514,457.11508,309.58984,456.51984C310.1543,455.52332,310.50647,454.51984,310.64838,453.50876C310.80212,452.40573,310.67804,451.32376,310.28723,450.35587C309.6175,448.69824,308.20056,447.39572,306.23346,446.6378C306.21588,446.63028,306.19885,446.6217,306.18127,446.6166C305.7599,446.454,305.47662,446.36267,305.0008,446.23798C304.8485,446.19656,304.19388,446.06894,303.89188,446.01852C303.83762,446.00897,303.79428,446.00342,303.76767,445.99927C303.76663,445.99936,303.7656,445.9994,303.7646,445.9994C303.7606,445.9994,303.75684,445.9988,303.75388,445.99832C303.71542,445.9936,303.58536,445.9817,303.46384,445.96762C303.20148,445.94168,302.93927,445.92883,302.67914,445.92883 Z"/> </g> <g style="fill:rgb(0,0,0); fill-opacity:1.0; stroke-linejoin: miter"> <path d="M239.42639,503.2409L239.42639,503.2409Q239.1355,503.42938,238.8309,503.62393L238.79346,503.61694Q238.38872,503.6396,238.11371,503.66342Q237.14507,503.74094,236.44678,503.92804Q235.98505,504.051,235.54077,504.26566Q233.74106,505.26892,233.63243,505.27338Q233.11388,505.4967,232.42844,505.59924Q231.84229,505.6887,231.02759,505.71072Q226.85916,505.7134,225.94757,505.78094Q224.59789,505.8469,223.93806,506.0424Q221.99876,506.69302,222.78433,508.58087Q223.37338,509.73132,225.52254,511.09042Q227.7417,512.46625,230.30403,513.29285Q231.1879,513.5746,231.98454,513.71106Q232.46242,513.7923,232.90887,513.8199L232.87593,513.8138L232.87827,513.8138C233.10289,513.84125,233.28183,513.8547,233.42625,513.8547C233.51846,513.8547,233.5966,513.8492,233.6636,513.83844L233.62643,513.8315L233.97064,513.83386Q235.328,513.7592,236.10017,513.7362L236.10252,513.7362L239.42879,503.2409 Z"/> </g> <g style="fill:rgb(0,0,0); fill-opacity:1.0; stroke-linejoin: miter"> </g> </g> </svg>